HIERARCHY
ROOT Hips
{
	OFFSET 0.000000 89.005402 0.000000
	CHANNELS 6 Xposition Yposition Zposition Xrotation Yrotation Zrotation
	JOINT Spine
	{
		OFFSET 0.116900 10.681000 0.373400
		CHANNELS 3 Xrotation Yrotation Zrotation
		JOINT Spine1
		{
			OFFSET 0.000000 13.840401 0.053500
			CHANNELS 3 Xrotation Yrotation Zrotation
			JOINT Spine2
			{
				OFFSET 0.000000 14.712700 -0.366200
				CHANNELS 3 Xrotation Yrotation Zrotation
				JOINT Neck
				{
					OFFSET 0.000000 35.415497 -3.314200
					CHANNELS 3 Xrotation Yrotation Zrotation
					JOINT Head
					{
						OFFSET 0.000000 16.899200 1.218300
						CHANNELS 3 Xrotation Yrotation Zrotation
						JOINT HeadTop_End
						{
							OFFSET 0.000000 22.206207 2.192500
							CHANNELS 3 Xrotation Yrotation Zrotation
							End Site
							{
								OFFSET 0.000000 22.314178 0.000000
							}
						}
					}
				}
				JOINT LeftShoulder
				{
					OFFSET 12.896400 26.716293 -4.548400
					CHANNELS 3 Xrotation Yrotation Zrotation
					JOINT LeftArm
					{
						OFFSET 19.027000 -4.857010 -1.718400
						CHANNELS 3 Xrotation Yrotation Zrotation
						JOINT LeftForeArm
						{
							OFFSET 24.179897 0.000000 0.000000
							CHANNELS 3 Xrotation Yrotation Zrotation
							JOINT LeftHand
							{
								OFFSET 27.156403 0.000000 0.000000
								CHANNELS 3 Xrotation Yrotation Zrotation
								JOINT LeftHandIndex1
								{
									OFFSET 16.441200 0.000000 0.000000
									CHANNELS 3 Xrotation Yrotation Zrotation
									JOINT LeftHandIndex2
									{
										OFFSET 4.821899 0.000000 0.000000
										CHANNELS 3 Xrotation Yrotation Zrotation
										JOINT LeftHandIndex3
										{
											OFFSET 6.386497 0.000000 0.000000
											CHANNELS 3 Xrotation Yrotation Zrotation
											JOINT LeftHandIndex4
											{
												OFFSET 5.188988 0.000000 0.000000
												CHANNELS 3 Xrotation Yrotation Zrotation
												End Site
												{
													OFFSET -0.178703 5.185913 0.000177
												}
											}
										}
									}
								}
								JOINT LeftHandThumb1
								{
									OFFSET 6.534897 -5.032593 5.900300
									CHANNELS 3 Xrotation Yrotation Zrotation
									JOINT LeftHandThumb2
									{
										OFFSET 3.818176 -2.204422 2.204423
										CHANNELS 3 Xrotation Yrotation Zrotation
										JOINT LeftHandThumb3
										{
											OFFSET 3.252098 -1.877594 1.877601
											CHANNELS 3 Xrotation Yrotation Zrotation
											JOINT LeftHandThumb4
											{
												OFFSET 5.251778 -3.032120 3.032117
												CHANNELS 3 Xrotation Yrotation Zrotation
												End Site
												{
													OFFSET 0.000023 6.780014 0.000000
												}
											}
										}
									}
								}
							}
						}
					}
				}
				JOINT RightShoulder
				{
					OFFSET -12.896300 26.716293 -4.548400
					CHANNELS 3 Xrotation Yrotation Zrotation
					JOINT RightArm
					{
						OFFSET -19.027000 -4.857010 -1.718400
						CHANNELS 3 Xrotation Yrotation Zrotation
						JOINT RightForeArm
						{
							OFFSET -24.179897 0.000000 0.000000
							CHANNELS 3 Xrotation Yrotation Zrotation
							JOINT RightHand
							{
								OFFSET -27.156403 0.000000 0.000000
								CHANNELS 3 Xrotation Yrotation Zrotation
								JOINT RightHandThumb1
								{
									OFFSET -6.591202 -4.852203 5.988100
									CHANNELS 3 Xrotation Yrotation Zrotation
									JOINT RightHandThumb2
									{
										OFFSET -3.818176 -2.204422 2.204423
										CHANNELS 3 Xrotation Yrotation Zrotation
										JOINT RightHandThumb3
										{
											OFFSET -3.252098 -1.877594 1.877601
											CHANNELS 3 Xrotation Yrotation Zrotation
											JOINT RightHandThumb4
											{
												OFFSET -5.251778 -3.032120 3.032117
												CHANNELS 3 Xrotation Yrotation Zrotation
												End Site
												{
													OFFSET -0.000023 6.780014 0.000000
												}
											}
										}
									}
								}
								JOINT RightHandIndex1
								{
									OFFSET -16.029404 0.000000 0.000000
									CHANNELS 3 Xrotation Yrotation Zrotation
									JOINT RightHandIndex2
									{
										OFFSET -5.213303 0.000000 0.000000
										CHANNELS 3 Xrotation Yrotation Zrotation
										JOINT RightHandIndex3
										{
											OFFSET -6.386528 0.000000 0.000000
											CHANNELS 3 Xrotation Yrotation Zrotation
											JOINT RightHandIndex4
											{
												OFFSET -5.189026 0.000000 0.000000
												CHANNELS 3 Xrotation Yrotation Zrotation
												End Site
												{
													OFFSET 0.236702 5.183624 0.001972
												}
											}
										}
									}
								}
							}
						}
					}
				}
			}
		}
	}
	JOINT LeftUpLeg
	{
		OFFSET 14.073000 -7.904099 -1.463000
		CHANNELS 3 Xrotation Yrotation Zrotation
		JOINT LeftLeg
		{
			OFFSET -0.109806 -34.073280 4.093200
			CHANNELS 3 Xrotation Yrotation Zrotation
			JOINT LeftFoot
			{
				OFFSET 0.109806 -29.899420 -6.319000
				CHANNELS 3 Xrotation Yrotation Zrotation
				JOINT LeftToeBase
				{
					OFFSET 1.551100 -14.988700 20.535801
					CHANNELS 3 Xrotation Yrotation Zrotation
					JOINT LeftToe_End
					{
						OFFSET 0.221200 0.570800 13.248301
						CHANNELS 3 Xrotation Yrotation Zrotation
						End Site
						{
							OFFSET 0.000000 13.262435 0.000000
						}
					}
				}
			}
		}
	}
	JOINT RightUpLeg
	{
		OFFSET -13.839300 -7.904099 -1.463000
		CHANNELS 3 Xrotation Yrotation Zrotation
		JOINT RightLeg
		{
			OFFSET 0.109694 -34.073219 4.093300
			CHANNELS 3 Xrotation Yrotation Zrotation
			JOINT RightFoot
			{
				OFFSET -0.109694 -29.899384 -6.319200
				CHANNELS 3 Xrotation Yrotation Zrotation
				JOINT RightToeBase
				{
					OFFSET -1.551100 -14.988700 20.535801
					CHANNELS 3 Xrotation Yrotation Zrotation
					JOINT RightToe_End
					{
						OFFSET -0.221200 0.570900 13.248299
						CHANNELS 3 Xrotation Yrotation Zrotation
						End Site
						{
							OFFSET 0.000000 13.262440 0.000000
						}
					}
				}
			}
		}
	}
}
MOTION
Frames: 8
Frame Time: 0.033333
-0.091974 75.072174 1.850284 -0.248836 0.005747 -1.069794 16.720134 0.108391 0.427906 20.229511 0.381538 0.975520 12.699875 0.271230 1.009295 3.021907 -1.057832 0.054816 -21.734649 2.695551 -1.539826 0.000001 0.000000 -0.000000 20.525605 -17.595312 8.941908 -33.628327 -16.943556 -37.149757 -2.453547 -51.816165 -20.220036 -54.818641 -19.616623 -15.039810 0.652703 9.454700 -24.552659 0.393643 2.027502 -21.972662 0.516966 0.708237 -27.300130 -0.000000 0.000000 -0.000001 36.779759 8.590999 -16.861101 2.292917 23.053657 15.131885 0.421623 18.453889 14.531402 0.000001 -0.000001 -0.000000 18.261506 13.719378 -7.516273 -29.797783 11.484671 42.748081 -39.031082 59.920819 40.328804 -15.566332 -0.832365 14.106469 40.086104 0.934510 20.748674 5.156327 -21.114854 -19.114889 4.783834 -12.476782 -21.501306 -0.000000 0.000000 -0.000003 18.326606 0.096215 38.993850 -3.922846 9.263619 32.271855 -5.638116 12.215467 12.793391 -0.000003 0.000001 -0.000002 -35.532792 0.962736 28.629296 48.820481 -6.030608 -8.736433 -13.287570 -7.637392 -11.718608 -3.804538 -12.884193 -1.581926 -0.000000 -0.000000 -0.000000 -38.228425 -11.314690 -24.601243 49.271755 7.047805 -2.509946 -12.611759 2.783817 14.497020 -8.508934 9.211766 9.971905 0.000000 0.000000 -0.000000 
0.893504 74.942856 2.027653 -0.248430 0.004860 -1.099545 16.630756 -0.326671 0.335084 20.166338 0.137172 1.021598 12.632220 0.009912 1.042170 3.131602 -1.513576 -0.339474 -21.748856 1.646418 -1.186354 0.000001 0.000000 0.000000 20.503389 -17.609006 8.873714 -33.763821 -16.212608 -37.084888 -1.951844 -50.703711 -19.774306 -54.748215 -19.271319 -14.440816 0.653242 9.455852 -24.566196 0.393866 2.028061 -21.978951 0.515771 0.709283 -27.306350 0.000000 -0.000000 -0.000000 36.787621 8.601204 -16.858020 2.293929 23.066922 15.134125 0.423058 18.467214 14.533078 0.000001 -0.000001 -0.000001 18.319614 14.070745 -7.448493 -29.088720 13.299550 41.527881 -39.020779 59.922383 40.317367 -16.844735 0.054659 12.207750 40.133696 0.880199 20.724064 5.163437 -21.188937 -19.127253 4.788772 -12.551270 -21.512751 -0.000000 0.000000 -0.000001 18.332132 0.091461 39.069556 -3.919470 9.258322 32.347069 -5.635944 12.206576 12.868349 -0.000000 -0.000002 0.000002 -35.856751 1.923996 28.618411 50.352616 -6.295698 -8.994621 -14.526557 -7.677253 -10.622649 -3.735395 -12.883926 -1.581910 -0.000000 0.000000 -0.000000 -38.185399 -10.419357 -25.353042 48.544265 7.547339 -1.771237 -11.918648 2.958117 14.912395 -8.484898 9.218513 9.989939 0.000000 0.000000 -0.000000 
2.076583 74.851700 2.067381 -0.245015 0.003230 -1.134275 16.654995 -0.998107 0.278011 20.201184 -0.248861 1.147214 12.659561 -0.409549 1.121746 3.295458 -2.191041 -0.875959 -21.752447 0.065348 -0.850013 -0.000001 -0.000000 0.000000 20.485305 -17.628213 8.816588 -34.136025 -15.293733 -36.737825 -1.093042 -48.704207 -19.027111 -54.781782 -18.829831 -13.848285 0.655339 9.460399 -24.619400 0.395667 2.032499 -22.029672 0.517112 0.713326 -27.356958 0.000001 0.000001 -0.000001 36.818521 8.641311 -16.846069 2.305545 23.117192 15.143624 0.435907 18.517435 14.541102 -0.000001 -0.000001 -0.000003 18.311105 14.594287 -6.939993 -28.480694 16.670960 39.207024 -38.674887 59.701277 39.916199 -18.467641 1.557961 9.884371 40.271673 0.722492 20.652839 5.179923 -21.403163 -19.171771 4.799973 -12.767549 -21.552380 0.000002 -0.000000 0.000002 18.346283 0.076176 39.289236 -3.908163 9.240766 32.564942 -5.631208 12.186721 13.087108 0.000003 -0.000001 0.000001 -36.385517 3.211777 28.189092 51.851552 -7.222889 -8.824486 -15.720990 -6.967649 -9.189692 -3.673600 -12.883599 -1.581887 0.000000 -0.000000 -0.000000 -38.173026 -9.724942 -26.543061 47.373301 8.255517 -0.740892 -11.107684 3.301288 15.408188 -8.375800 9.219517 9.990904 0.000000 0.000000 -0.000001 
3.440304 74.902092 2.189311 -0.241583 0.001988 -1.167568 16.698252 -1.719763 0.212412 20.255266 -0.665317 1.280021 12.705693 -0.860318 1.210606 3.478222 -2.976332 -1.494274 -21.731191 -1.774413 -0.476340 -0.000000 -0.000000 -0.000000 20.432183 -17.680927 8.645243 -34.765653 -14.765390 -35.712368 -0.112804 -46.089372 -18.211583 -54.947844 -18.250607 -13.581642 0.658937 9.468109 -24.709734 0.398796 2.040237 -22.117911 0.520852 0.719786 -27.445143 0.000002 0.000001 -0.000001 36.871052 8.709330 -16.825541 2.319959 23.203732 15.159214 0.452979 18.604259 14.553393 0.000000 -0.000000 0.000001 18.244376 14.942926 -6.371564 -27.605816 20.203910 36.937731 -38.041804 59.260067 39.179054 -19.430900 3.333314 7.880006 40.492684 0.469006 20.539368 5.205659 -21.746969 -19.244070 4.817288 -13.114709 -21.616702 -0.000000 -0.000001 -0.000001 18.367577 0.050507 39.641810 -3.890022 9.212935 32.914668 -5.623430 12.154228 13.438040 -0.000001 0.000002 0.000001 -36.870638 5.214095 27.455701 52.956536 -9.781219 -8.367812 -16.920276 -4.860848 -6.910978 -3.606255 -12.883397 -1.581875 0.000000 0.000000 -0.000000 -37.759304 -9.002884 -27.803496 45.700058 8.832005 0.399867 -10.325614 3.585778 16.175488 -8.249642 9.220202 9.993177 0.000000 -0.000000 -0.000001 
4.922142 75.119919 2.362867 -0.238171 0.002070 -1.190989 16.746220 -2.393272 0.131880 20.314793 -1.054567 1.393138 12.758246 -1.278969 1.290805 3.661892 -3.806201 -2.149700 -21.679784 -3.724389 -0.078227 -0.000003 -0.000001 -0.000000 20.418132 -17.746279 8.591534 -35.636666 -14.794512 -34.155543 0.829001 -43.154716 -17.483421 -55.206793 -17.681702 -13.962295 0.663739 9.478386 -24.830009 0.403020 2.050592 -22.236398 0.525513 0.728601 -27.563599 -0.000000 -0.000001 -0.000000 36.940890 8.799996 -16.798592 2.337454 23.319471 15.179938 0.473897 18.720403 14.569714 0.000002 -0.000000 0.000000 18.120126 14.968735 -5.842588 -26.640523 23.156416 35.406816 -37.175593 58.609355 38.166336 -19.241212 4.891662 6.748797 40.771452 0.147768 20.397271 5.237688 -22.181850 -19.335333 4.838672 -13.553798 -21.698007 0.000000 -0.000001 0.000002 18.394709 0.018180 40.087774 -3.866640 9.177604 33.356895 -5.613412 12.113853 13.881974 0.000005 0.000000 -0.000003 -37.199642 7.982268 27.006867 53.432792 -13.237419 -8.312339 -17.914258 -2.623801 -3.785800 -3.533715 -12.883285 -1.581871 0.000000 -0.000000 -0.000000 -36.814330 -8.195968 -28.855039 43.524858 8.363120 1.329581 -9.556379 4.318612 17.508975 -8.113665 9.220903 9.997019 -0.000001 0.000000 -0.000000 
6.451228 75.499893 2.511787 -0.234888 0.001896 -1.214711 16.799118 -3.016149 0.045752 20.379049 -1.417178 1.487700 12.816373 -1.667888 1.356045 3.836643 -4.641518 -2.812584 -21.598368 -5.694283 0.326475 0.000001 -0.000002 -0.000000 20.541213 -17.789238 8.939224 -36.750543 -15.279774 -32.451499 1.670086 -40.124325 -16.895390 -55.445239 -17.269928 -15.018582 0.669609 9.490876 -24.976544 0.408258 2.063312 -22.381799 0.531088 0.739474 -27.709020 -0.000001 0.000002 -0.000001 37.025974 8.910490 -16.765794 2.358958 23.460347 15.205179 0.499582 18.861784 14.589709 -0.000002 0.000000 -0.000002 17.972477 14.738686 -5.409645 -25.787685 25.357783 34.773483 -36.153639 57.782840 36.962873 -18.119505 6.078059 6.467980 41.090244 -0.221490 20.236206 5.273618 -22.680681 -19.440095 4.862449 -14.057445 -21.791276 0.000001 0.000002 0.000000 18.425984 -0.018766 40.599286 -3.839483 9.137252 33.864074 -5.601518 12.067699 14.391077 -0.000001 0.000002 -0.000003 -37.133703 10.880703 26.931093 53.153126 -16.473069 -9.058841 -18.555546 -0.978745 -0.353794 -3.455735 -12.883241 -1.581865 0.000000 0.000000 -0.000000 -35.602532 -7.821198 -30.614533 40.600014 6.748952 3.182578 -8.542133 6.704812 18.538006 -7.967714 9.222109 9.999072 0.000000 -0.000000 -0.000000 
7.956496 76.020058 2.556792 -0.232486 -0.001507 -1.262408 16.872777 -3.497049 -0.029183 20.457627 -1.709879 1.537121 12.890813 -1.980291 1.381078 3.994930 -5.445541 -3.454893 -21.491515 -7.599530 0.720118 -0.000000 0.000000 -0.000001 20.832881 -17.784713 9.781002 -38.156715 -16.097583 -30.950357 2.384021 -37.242505 -16.452633 -55.538013 -17.102266 -16.464791 0.676488 9.505337 -25.146414 0.414366 2.078097 -22.551285 0.537744 0.752055 -27.878464 0.000001 -0.000001 0.000000 37.124557 9.038593 -16.727968 2.383906 23.623638 15.234464 0.529399 19.025688 14.612826 0.000003 0.000001 -0.000002 17.860306 14.425496 -5.176223 -25.131582 26.834468 34.861180 -35.059812 56.828881 35.662470 -16.672900 7.049991 6.679278 41.433352 -0.621287 20.064560 5.311435 -23.219484 -19.553298 4.887234 -14.601409 -21.891993 0.000000 -0.000000 0.000002 18.460186 -0.058273 41.151702 -3.809783 9.094014 34.411767 -5.588167 12.017839 14.940757 -0.000001 0.000001 -0.000002 -36.806151 13.834377 27.031568 52.210140 -19.144798 -10.093984 -18.807421 0.055825 2.881928 -3.369859 -12.883264 -1.581866 -0.000000 -0.000000 0.000000 -33.721160 -7.851369 -33.953598 36.356964 4.562063 7.647391 -6.697880 10.025650 18.455998 -7.871995 9.223121 10.007681 0.000001 0.000000 -0.000001 
9.362665 76.597549 2.440228 -0.230993 -0.006369 -1.322530 16.988922 -3.698497 -0.106253 20.563710 -1.856872 1.498493 12.996720 -2.133558 1.329529 4.130571 -6.178903 -4.046324 -21.368937 -9.349784 1.082044 -0.000001 0.000002 -0.000000 21.243196 -17.727549 10.969940 -39.908129 -17.161655 -29.865511 2.940752 -34.828682 -16.145923 -55.405866 -17.190777 -17.855419 0.684183 9.521464 -25.336085 0.421261 2.094599 -22.740461 0.545233 0.766052 -28.067672 -0.000003 0.000001 -0.000001 37.234561 9.181749 -16.685959 2.411566 23.805970 15.267155 0.562549 19.208674 14.638600 0.000001 0.000001 -0.000000 17.833967 14.185522 -5.246851 -24.671528 27.597151 35.399593 -33.994958 55.828143 34.382793 -15.498623 7.972230 7.028334 41.783665 -1.031948 19.891196 5.349140 -23.771609 -19.669348 4.911650 -15.158804 -21.995185 0.000001 -0.000001 0.000002 18.495623 -0.098402 41.717761 -3.778925 9.049984 34.972901 -5.574006 11.966931 15.503886 0.000002 -0.000002 -0.000001 -36.303845 16.468421 26.851267 51.071619 -20.760710 -10.709978 -18.863743 0.701176 5.306102 -3.275436 -12.883182 -1.581858 -0.000000 -0.000000 -0.000000 -31.681054 -9.213252 -37.155085 31.501905 2.642632 10.979974 -4.154496 11.799637 19.068753 -7.866884 9.223040 10.033379 0.000002 -0.000000 -0.000000 
